<svg width="36" height="37" viewBox="0 0 36 37" fill="none" xmlns="http://www.w3.org/2000/svg">
<path d="M0 18.5938C0 8.65262 8.05887 0.59375 18 0.59375C27.9411 0.59375 36 8.65262 36 18.5938C36 28.5349 27.9411 36.5938 18 36.5938C8.05887 36.5938 0 28.5349 0 18.5938Z" fill="#1769FF"/>
<path fill-rule="evenodd" clip-rule="evenodd" d="M17.7528 15.6274C17.7528 14.9336 17.5711 14.3389 17.2087 13.8411C16.6047 13.0303 15.5809 12.6149 14.1336 12.5938H8.40002V24.2986H13.7464C14.3492 24.2986 14.9069 24.2474 15.4228 24.1416C15.9387 24.0347 16.3846 23.8398 16.7628 23.5536C17.0992 23.3041 17.3792 22.9967 17.6027 22.6325C17.956 22.0824 18.1321 21.4598 18.1321 20.766C18.1321 20.0933 17.9775 19.5209 17.6704 19.0509C17.36 18.5798 16.9039 18.2357 16.2988 18.0174C16.6973 17.817 16.9987 17.5942 17.2042 17.3514C17.5711 16.9171 17.7528 16.3413 17.7528 15.6274ZM25.7532 14.5961H20.6687V13.1394H25.7532V14.5961ZM21.2614 19.1144C21.3449 18.5509 21.5493 18.1043 21.8733 17.7747C22.1972 17.445 22.6556 17.2802 23.2426 17.2802C23.7844 17.2802 24.2371 17.435 24.6051 17.7457C24.9686 18.0587 25.1741 18.5131 25.2159 19.1144H21.2614ZM25.3051 15.819C25.918 16.0885 26.4226 16.5162 26.82 17.0998C27.1824 17.6143 27.4149 18.2112 27.5211 18.8895C27.5831 19.2859 27.608 19.8606 27.5978 20.6079H21.205C21.2433 21.4755 21.5459 22.0846 22.1239 22.4332C22.4738 22.6504 22.8949 22.7595 23.3893 22.7595C23.9098 22.7595 24.3353 22.627 24.6616 22.3631C24.8411 22.2194 24.9991 22.0212 25.1346 21.7672H27.477C27.4149 22.2795 27.1305 22.8019 26.627 23.332C25.8413 24.1728 24.7406 24.5938 23.3261 24.5938C22.1577 24.5938 21.1271 24.2396 20.2364 23.5291C19.3412 22.8197 18.8964 21.6637 18.8964 20.0644C18.8964 18.5643 19.2994 17.4138 20.1043 16.6131C20.9114 15.8146 21.9557 15.4125 23.2415 15.4125C24.0057 15.4125 24.6932 15.5484 25.3051 15.819ZM10.765 22.2672V19.1455H13.6866C14.1946 19.15 14.5908 19.2168 14.873 19.3438C15.3777 19.5721 15.6283 19.9897 15.6283 20.6C15.6283 21.3194 15.3686 21.805 14.8482 22.0612C14.5626 22.1981 14.1607 22.2672 13.6459 22.2672H10.765ZM10.765 14.6262V17.2089H13.6505C14.1641 17.2089 14.5829 17.112 14.9058 16.9182C15.2264 16.7244 15.3878 16.3814 15.3878 15.8914C15.3878 15.3446 15.1756 14.9848 14.7511 14.8089C14.3831 14.6875 13.9157 14.6262 13.3479 14.6262H10.765Z" fill="white"/>
</svg>
