<svg width="36" height="37" viewBox="0 0 36 37" fill="none" xmlns="http://www.w3.org/2000/svg">
<path d="M0 18.5938C0 8.65262 8.05887 0.59375 18 0.59375C27.9411 0.59375 36 8.65262 36 18.5938C36 28.5349 27.9411 36.5938 18 36.5938C8.05887 36.5938 0 28.5349 0 18.5938Z" fill="#F26798"/>
<path fill-rule="evenodd" clip-rule="evenodd" d="M27.6 18.5803C27.6 19.2296 27.5339 19.8779 27.4041 20.5099C27.2775 21.1268 27.09 21.7325 26.8444 22.3116C26.6044 22.8803 26.3067 23.4285 25.9589 23.9396C25.6162 24.4475 25.2215 24.924 24.7879 25.3584C24.3533 25.7909 23.8752 26.1846 23.3675 26.5287C22.8547 26.8741 22.3058 27.1713 21.7367 27.4124C21.1568 27.6568 20.5497 27.844 19.9333 27.9704C19.3005 28.1005 18.6498 28.167 17.9996 28.167C17.3489 28.167 16.6983 28.1005 16.0664 27.9704C15.449 27.844 14.8419 27.6568 14.2625 27.4124C13.6935 27.1713 13.144 26.8741 12.6312 26.5287C12.1235 26.1846 11.6454 25.7909 11.2118 25.3584C10.7777 24.924 10.383 24.4475 10.0398 23.9396C9.69386 23.4285 9.3957 22.8803 9.15476 22.3116C8.9091 21.7325 8.72114 21.1268 8.5941 20.5099C8.46567 19.8779 8.40002 19.2296 8.40002 18.5803C8.40002 17.9306 8.46563 17.2809 8.59414 16.6503C8.72118 16.0334 8.90913 15.4267 9.1548 14.8486C9.39573 14.2794 9.69389 13.7308 10.0399 13.2197C10.383 12.7113 10.7777 12.2357 11.2118 11.8008C11.6454 11.3683 12.1236 10.9756 12.6312 10.632C13.1441 10.2851 13.6935 9.98793 14.2626 9.74636C14.842 9.5015 15.449 9.31382 16.0664 9.18839C16.6983 9.0592 17.349 8.99365 17.9996 8.99365C18.6498 8.99365 19.3005 9.0592 19.9333 9.18839C20.5497 9.31386 21.1568 9.50154 21.7367 9.74636C22.3058 9.98789 22.8547 10.2851 23.3675 10.632C23.8752 10.9756 24.3534 11.3683 24.7879 11.8008C25.2215 12.2357 25.6163 12.7113 25.9589 13.2197C26.3067 13.7308 26.6044 14.2795 26.8444 14.8486C27.09 15.4267 27.2775 16.0334 27.4041 16.6503C27.5339 17.2809 27.6 17.9306 27.6 18.5803ZM14.5016 11.1755C12.2154 12.2536 10.509 14.3572 9.97695 16.8924L9.98483 16.8925C10.265 16.8951 13.6509 16.9264 17.5458 15.893C16.1268 13.3756 14.6108 11.3211 14.5016 11.1755ZM9.80775 18.3191C9.95305 18.3247 14.0038 18.4155 18.225 17.1536C18.4599 17.6132 18.6845 18.0795 18.8902 18.5447C18.7824 18.5756 18.6737 18.6075 18.5668 18.6431C14.1425 20.0717 11.8989 24.0463 11.9017 24.0505C10.5957 22.6008 9.80117 20.6835 9.80117 18.5803C9.80117 18.5196 9.80317 18.4602 9.80519 18.4004C9.8061 18.3735 9.80701 18.3464 9.80775 18.3191ZM23.4139 12.4361C21.9706 11.1651 20.0753 10.3942 17.9996 10.3942C17.3335 10.3942 16.687 10.4747 16.0678 10.6236L16.0811 10.6414C16.2752 10.9011 17.7691 12.8991 19.1326 15.3991C22.2007 14.2505 23.3745 12.495 23.4132 12.4371L23.4139 12.4361ZM19.4291 19.9077L19.449 19.9013C20.6027 22.8953 21.0789 25.4024 21.2003 26.1177C20.2164 26.5356 19.1349 26.7664 17.9996 26.7664C16.0982 26.7664 14.3525 26.1144 12.9607 25.0335C12.9778 24.9965 14.5575 21.603 19.3947 19.9191C19.406 19.9149 19.4175 19.9113 19.4291 19.9077ZM22.5809 25.3696C24.4218 24.1292 25.7292 22.1594 26.0939 19.8778C25.9251 19.8235 23.6314 19.0984 20.9852 19.5221C22.0606 22.473 22.4975 24.8762 22.5809 25.3696ZM20.3083 17.8061C20.1382 17.4068 19.9539 17.0094 19.7636 16.619C22.9798 15.3074 24.2985 13.426 24.3304 13.3804L24.3309 13.3798C25.4812 14.7742 26.1764 16.5554 26.1952 18.4961C26.1929 18.4956 26.1897 18.4949 26.1855 18.4941C25.9703 18.4493 23.248 17.8831 20.4855 18.2302C20.4279 18.0898 20.3688 17.9494 20.3083 17.8061Z" fill="white"/>
</svg>
