<svg width="36" height="37" viewBox="0 0 36 37" fill="none" xmlns="http://www.w3.org/2000/svg">
<path d="M0 18.5938C0 8.65262 8.05887 0.59375 18 0.59375C27.9411 0.59375 36 8.65262 36 18.5938C36 28.5349 27.9411 36.5938 18 36.5938C8.05887 36.5938 0 28.5349 0 18.5938Z" fill="#E4405F"/>
<mask id="mask0_1249_1001" style="mask-type:luminance" maskUnits="userSpaceOnUse" x="0" y="0" width="36" height="37">
<path fill-rule="evenodd" clip-rule="evenodd" d="M0 18.5938C0 8.65262 8.05887 0.59375 18 0.59375C27.9411 0.59375 36 8.65262 36 18.5938C36 28.5349 27.9411 36.5938 18 36.5938C8.05887 36.5938 0 28.5349 0 18.5938Z" fill="white"/>
</mask>
<g mask="url(#mask0_1249_1001)">
<path fill-rule="evenodd" clip-rule="evenodd" d="M18.0009 8.99365C15.3937 8.99365 15.0665 9.00505 14.0425 9.05165C13.0205 9.09845 12.3229 9.26026 11.7125 9.49766C11.0811 9.74286 10.5454 10.0709 10.0118 10.6047C9.47784 11.1383 9.14983 11.6739 8.90383 12.3051C8.66583 12.9157 8.50383 13.6135 8.45782 14.6351C8.41202 15.6591 8.40002 15.9865 8.40002 18.5938C8.40002 21.201 8.41162 21.5272 8.45803 22.5512C8.50503 23.5732 8.66683 24.2708 8.90403 24.8812C9.14943 25.5126 9.47744 26.0482 10.0112 26.5818C10.5446 27.1158 11.0803 27.4446 11.7113 27.6898C12.3221 27.9273 13.0199 28.0891 14.0417 28.1359C15.0657 28.1825 15.3927 28.1939 17.9997 28.1939C20.6072 28.1939 20.9334 28.1825 21.9574 28.1359C22.9794 28.0891 23.6778 27.9273 24.2886 27.6898C24.9198 27.4446 25.4546 27.1158 25.988 26.5818C26.522 26.0482 26.85 25.5126 27.096 24.8814C27.332 24.2708 27.494 23.573 27.542 22.5514C27.588 21.5274 27.6 21.201 27.6 18.5938C27.6 15.9865 27.588 15.6593 27.542 14.6353C27.494 13.6133 27.332 12.9157 27.096 12.3053C26.85 11.6739 26.522 11.1383 25.988 10.6047C25.454 10.0707 24.92 9.74266 24.288 9.49766C23.676 9.26026 22.978 9.09845 21.956 9.05165C20.932 9.00505 20.606 8.99365 17.9979 8.99365H18.0009ZM17.1397 10.7237C17.3069 10.7234 17.4868 10.7235 17.681 10.7236L18.0009 10.7237C20.5642 10.7237 20.868 10.7329 21.8802 10.7789C22.8162 10.8217 23.3242 10.9781 23.6626 11.1095C24.1106 11.2835 24.43 11.4915 24.7658 11.8275C25.1018 12.1635 25.3098 12.4835 25.4842 12.9315C25.6156 13.2695 25.7722 13.7775 25.8148 14.7135C25.8608 15.7255 25.8708 16.0295 25.8708 18.5916C25.8708 21.1536 25.8608 21.4576 25.8148 22.4696C25.772 23.4056 25.6156 23.9136 25.4842 24.2516C25.3102 24.6996 25.1018 25.0186 24.7658 25.3544C24.4298 25.6904 24.1108 25.8984 23.6626 26.0724C23.3246 26.2044 22.8162 26.3604 21.8802 26.4032C20.8682 26.4492 20.5642 26.4592 18.0009 26.4592C15.4375 26.4592 15.1337 26.4492 14.1217 26.4032C13.1857 26.36 12.6777 26.2036 12.3391 26.0722C11.8911 25.8982 11.5711 25.6902 11.2351 25.3542C10.8991 25.0182 10.691 24.699 10.5166 24.2508C10.3852 23.9128 10.2286 23.4048 10.186 22.4688C10.14 21.4568 10.1308 21.1528 10.1308 18.5892C10.1308 16.0255 10.14 15.7231 10.186 14.7111C10.2288 13.7751 10.3852 13.2671 10.5166 12.9287C10.6906 12.4807 10.8991 12.1607 11.2351 11.8247C11.5711 11.4887 11.8911 11.2807 12.3391 11.1063C12.6775 10.9743 13.1857 10.8183 14.1217 10.7753C15.0073 10.7353 15.3505 10.7233 17.1397 10.7213V10.7237ZM21.9734 13.4693C21.9734 12.8331 22.4894 12.3177 23.1254 12.3177V12.3173C23.7614 12.3173 24.2774 12.8333 24.2774 13.4693C24.2774 14.1053 23.7614 14.6213 23.1254 14.6213C22.4894 14.6213 21.9734 14.1053 21.9734 13.4693ZM18.0007 13.6637C15.2782 13.6638 13.0709 15.8712 13.0709 18.5937C13.0709 21.3164 15.2783 23.5228 18.0009 23.5228C20.7236 23.5228 22.9302 21.3164 22.9302 18.5937C22.9302 15.8711 20.7234 13.6637 18.0007 13.6637ZM21.201 18.5937C21.201 16.8263 19.7681 15.3937 18.0009 15.3937C16.2335 15.3937 14.8009 16.8263 14.8009 18.5937C14.8009 20.3609 16.2335 21.7937 18.0009 21.7937C19.7681 21.7937 21.201 20.3609 21.201 18.5937Z" fill="white"/>
</g>
</svg>
