<svg width="36" height="37" viewBox="0 0 36 37" fill="none" xmlns="http://www.w3.org/2000/svg">
<path d="M0 18.5938C0 8.65262 8.05887 0.59375 18 0.59375C27.9411 0.59375 36 8.65262 36 18.5938C36 28.5349 27.9411 36.5938 18 36.5938C8.05887 36.5938 0 28.5349 0 18.5938Z" fill="#0077B5"/>
<path fill-rule="evenodd" clip-rule="evenodd" d="M12.9891 11.7108C12.9891 12.8876 12.1033 13.8293 10.6809 13.8293H10.6548C9.28537 13.8293 8.40002 12.8876 8.40002 11.7108C8.40002 10.5091 9.31233 9.59375 10.7078 9.59375C12.1033 9.59375 12.9626 10.5091 12.9891 11.7108ZM12.7204 15.5022V27.7584H8.64124V15.5022H12.7204ZM27.4314 27.7584L27.4316 20.731C27.4316 16.9665 25.4192 15.2143 22.7349 15.2143C20.5691 15.2143 19.5994 16.4039 19.058 17.2385V15.5025H14.9783C15.0321 16.6525 14.9783 27.7588 14.9783 27.7588H19.058V20.9138C19.058 20.5475 19.0845 20.1821 19.1924 19.9199C19.4872 19.1881 20.1584 18.4304 21.2854 18.4304C22.7621 18.4304 23.3524 19.5543 23.3524 21.2013V27.7584H27.4314Z" fill="white"/>
</svg>
