<svg width="37" height="37" viewBox="0 0 37 37" fill="none" xmlns="http://www.w3.org/2000/svg">
<path d="M1 19C1 9.05887 9.05887 1 19 1C28.9411 1 37 9.05887 37 19C37 28.9411 28.9411 37 19 37C9.05887 37 1 28.9411 1 19Z" fill="#6364FF"/>
<g clip-path="url(#clip0_1256_1078)">
<path d="M28.9193 13.8538C28.6112 11.6 26.6155 9.82392 24.2497 9.47976C23.8506 9.42161 22.3383 9.20996 18.8352 9.20996H18.809C15.3049 9.20996 14.5531 9.42161 14.154 9.47976C11.8541 9.81439 9.75372 11.4103 9.24414 13.6907C8.99903 14.8138 8.97288 16.0589 9.01841 17.201C9.08332 18.8389 9.09591 20.4739 9.24704 22.1051C9.35152 23.1886 9.53379 24.2635 9.79247 25.3217C10.2769 27.2761 12.2377 28.9025 14.1588 29.566C16.2156 30.258 18.4276 30.3729 20.547 29.8978C20.7802 29.8444 21.0108 29.7824 21.2387 29.7119C21.7532 29.5508 22.3567 29.3706 22.8004 29.0541C22.8065 29.0496 22.8115 29.0439 22.815 29.0373C22.8185 29.0307 22.8205 29.0234 22.8208 29.0159V27.4353C22.8206 27.4283 22.819 27.4214 22.8158 27.4152C22.8127 27.409 22.8082 27.4035 22.8026 27.3992C22.797 27.3949 22.7905 27.3919 22.7836 27.3904C22.7767 27.3889 22.7695 27.3889 22.7626 27.3905C21.4048 27.7097 20.0133 27.8697 18.6172 27.8671C16.2146 27.8671 15.5684 26.745 15.3834 26.2779C15.2346 25.8742 15.1402 25.453 15.1024 25.0252C15.102 25.018 15.1034 25.0108 15.1063 25.0043C15.1093 24.9977 15.1138 24.9919 15.1194 24.9873C15.1251 24.9828 15.1318 24.9796 15.1389 24.9781C15.1461 24.9765 15.1535 24.9767 15.1605 24.9785C16.4958 25.2955 17.8646 25.4555 19.2382 25.4551C19.5685 25.4551 19.8979 25.4551 20.2283 25.4466C21.6098 25.4084 23.0659 25.3389 24.4251 25.0776C24.459 25.071 24.4929 25.0652 24.522 25.0566C26.6659 24.6515 28.7062 23.3797 28.9135 20.1593C28.9212 20.0325 28.9406 18.8312 28.9406 18.6997C28.9416 18.2526 29.0869 15.5279 28.9193 13.8538ZM25.6196 21.8896H23.3652V16.4555C23.3652 15.3114 22.8808 14.728 21.8956 14.728C20.8125 14.728 20.2699 15.4182 20.2699 16.7815V19.756H18.0291V16.7815C18.0291 15.4182 17.4856 14.728 16.4025 14.728C15.4231 14.728 14.9338 15.3114 14.9329 16.4555V21.8896H12.6804V16.2905C12.6804 15.1465 12.9772 14.2376 13.5708 13.5639C14.183 12.8918 14.9862 12.5467 15.9831 12.5467C17.1369 12.5467 18.0088 12.9833 18.5901 13.8557L19.151 14.7823L19.7129 13.8557C20.2942 12.9833 21.1661 12.5467 22.318 12.5467C23.3139 12.5467 24.117 12.8918 24.7312 13.5639C25.3248 14.237 25.6215 15.1459 25.6215 16.2905L25.6196 21.8896Z" fill="white"/>
</g>
<defs>
<clipPath id="clip0_1256_1078">
<rect width="20" height="21.3514" fill="white" transform="translate(9 9)"/>
</clipPath>
</defs>
</svg>
