<svg width="91" height="15" viewBox="0 0 91 15" fill="none" xmlns="http://www.w3.org/2000/svg">
<path d="M6.19252 0.801C6.73652 -0.267 8.26252 -0.267 8.80752 0.801L10.3685 3.865L13.7625 4.405C14.9455 4.594 15.4165 6.043 14.5705 6.891L12.1405 9.327L12.6765 12.727C12.8625 13.911 11.6285 14.807 10.5615 14.263L7.49952 12.702L4.43852 14.262C3.37052 14.805 2.13652 13.91 2.32352 12.726L2.85852 9.326L0.42952 6.89C-0.41548 6.043 0.0555198 4.594 1.23852 4.405L4.63252 3.865L6.19252 0.801Z" fill="#222325"/>
<path d="M25.1935 0.801C25.7375 -0.267 27.2635 -0.267 27.8085 0.801L29.3695 3.865L32.7635 4.405C33.9465 4.594 34.4175 6.043 33.5715 6.891L31.1415 9.327L31.6775 12.727C31.8635 13.911 30.6295 14.807 29.5625 14.263L26.5005 12.702L23.4395 14.262C22.3715 14.805 21.1375 13.91 21.3245 12.726L21.8595 9.326L19.4305 6.89C18.5855 6.043 19.0565 4.594 20.2395 4.405L23.6335 3.865L25.1935 0.801Z" fill="#222325"/>
<path d="M44.194 0.801C44.738 -0.267 46.264 -0.267 46.809 0.801L48.37 3.865L51.764 4.405C52.947 4.594 53.418 6.043 52.572 6.891L50.142 9.327L50.678 12.727C50.864 13.911 49.63 14.807 48.563 14.263L45.501 12.702L42.44 14.262C41.372 14.805 40.138 13.91 40.325 12.726L40.86 9.326L38.431 6.89C37.586 6.043 38.057 4.594 39.24 4.405L42.634 3.865L44.194 0.801Z" fill="#222325"/>
<path d="M63.195 0.801C63.739 -0.267 65.265 -0.267 65.81 0.801L67.371 3.865L70.765 4.405C71.948 4.594 72.419 6.043 71.573 6.891L69.143 9.327L69.679 12.727C69.865 13.911 68.631 14.807 67.564 14.263L64.502 12.702L61.441 14.262C60.373 14.805 59.139 13.91 59.326 12.726L59.861 9.326L57.432 6.89C56.587 6.043 57.058 4.594 58.241 4.405L61.635 3.865L63.195 0.801Z" fill="#222325"/>
<path d="M82.1954 0.801C82.7394 -0.267 84.2654 -0.267 84.8104 0.801L86.3715 3.865L89.7654 4.405C90.9484 4.594 91.4195 6.043 90.5735 6.891L88.1434 9.327L88.6795 12.727C88.8655 13.911 87.6315 14.807 86.5645 14.263L83.5024 12.702L80.4414 14.262C79.3734 14.805 78.1394 13.91 78.3264 12.726L78.8614 9.326L76.4324 6.89C75.5874 6.043 76.0584 4.594 77.2414 4.405L80.6354 3.865L82.1954 0.801Z" fill="#222325"/>
</svg>
