<svg width="48" height="48" viewBox="0 0 48 48" fill="none" xmlns="http://www.w3.org/2000/svg">
<path d="M0 24C0 10.7452 10.7452 0 24 0C37.2548 0 48 10.7452 48 24C48 37.2548 37.2548 48 24 48C10.7452 48 0 37.2548 0 24Z" fill="#E4405F"/>
<mask id="mask0" mask-type="alpha" maskUnits="userSpaceOnUse" x="0" y="0" width="48" height="48">
<path fill-rule="evenodd" clip-rule="evenodd" d="M0 24C0 10.7452 10.7452 0 24 0C37.2548 0 48 10.7452 48 24C48 37.2548 37.2548 48 24 48C10.7452 48 0 37.2548 0 24Z" fill="white"/>
</mask>
<g mask="url(#mask0)">
<path fill-rule="evenodd" clip-rule="evenodd" d="M24.0012 11.2002C20.5249 11.2002 20.0886 11.2154 18.7233 11.2775C17.3606 11.3399 16.4305 11.5557 15.6166 11.8722C14.7747 12.1991 14.0606 12.6365 13.3491 13.3482C12.6371 14.0597 12.1998 14.7738 11.8718 15.6154C11.5544 16.4296 11.3384 17.36 11.2771 18.7221C11.216 20.0875 11.2 20.524 11.2 24.0003C11.2 27.4766 11.2155 27.9116 11.2773 29.2769C11.34 30.6396 11.5557 31.5697 11.872 32.3836C12.1992 33.2255 12.6366 33.9396 13.3483 34.6511C14.0595 35.3631 14.7736 35.8015 15.615 36.1285C16.4294 36.445 17.3598 36.6607 18.7222 36.7231C20.0876 36.7853 20.5236 36.8005 23.9996 36.8005C27.4762 36.8005 27.9111 36.7853 29.2765 36.7231C30.6391 36.6607 31.5704 36.445 32.3848 36.1285C33.2264 35.8015 33.9394 35.3631 34.6507 34.6511C35.3627 33.9396 35.8 33.2255 36.128 32.3839C36.4427 31.5697 36.6587 30.6393 36.7227 29.2772C36.784 27.9118 36.8 27.4766 36.8 24.0003C36.8 20.524 36.784 20.0878 36.7227 18.7224C36.6587 17.3597 36.4427 16.4296 36.128 15.6157C35.8 14.7738 35.3627 14.0597 34.6507 13.3482C33.9386 12.6362 33.2266 12.1989 32.384 11.8722C31.568 11.5557 30.6373 11.3399 29.2746 11.2775C27.9093 11.2154 27.4746 11.2002 23.9972 11.2002H24.0012ZM23.5743 13.5068H23.5746L24.0012 13.5069C27.4188 13.5069 27.8239 13.5192 29.1735 13.5805C30.4215 13.6376 31.0989 13.8461 31.5501 14.0213C32.1474 14.2533 32.5733 14.5306 33.021 14.9787C33.469 15.4267 33.7464 15.8533 33.9789 16.4507C34.1541 16.9013 34.3629 17.5787 34.4197 18.8267C34.4811 20.176 34.4944 20.5814 34.4944 23.9974C34.4944 27.4134 34.4811 27.8188 34.4197 29.1681C34.3627 30.4161 34.1541 31.0935 33.9789 31.5442C33.7469 32.1415 33.469 32.5668 33.021 33.0146C32.573 33.4626 32.1477 33.7399 31.5501 33.9719C31.0994 34.1479 30.4215 34.3559 29.1735 34.413C27.8242 34.4743 27.4188 34.4877 24.0012 34.4877C20.5833 34.4877 20.1782 34.4743 18.8289 34.413C17.5809 34.3554 16.9035 34.1469 16.4521 33.9716C15.8547 33.7396 15.4281 33.4623 14.9801 33.0143C14.532 32.5663 14.2547 32.1407 14.0222 31.5431C13.847 31.0924 13.6382 30.4151 13.5814 29.1671C13.52 27.8177 13.5078 27.4124 13.5078 23.9942C13.5078 20.576 13.52 20.1728 13.5814 18.8235C13.6384 17.5755 13.847 16.8981 14.0222 16.4469C14.2542 15.8496 14.532 15.4229 14.9801 14.9749C15.4281 14.5269 15.8547 14.2496 16.4521 14.017C16.9033 13.841 17.5809 13.633 18.8289 13.5757C20.0097 13.5224 20.4673 13.5064 22.8529 13.5037V13.5069C23.0758 13.5066 23.3156 13.5067 23.5743 13.5068ZM29.2978 17.1677C29.2978 16.3194 29.9858 15.6322 30.8338 15.6322V15.6317C31.6818 15.6317 32.3698 16.3197 32.3698 17.1677C32.3698 18.0157 31.6818 18.7037 30.8338 18.7037C29.9858 18.7037 29.2978 18.0157 29.2978 17.1677ZM24.0009 17.4269C20.3709 17.4271 17.4278 20.3702 17.4278 24.0003C17.4278 27.6305 20.371 30.5724 24.0012 30.5724C27.6314 30.5724 30.5735 27.6305 30.5735 24.0003C30.5735 20.3701 27.6311 17.4269 24.0009 17.4269ZM28.2679 24.0003C28.2679 21.6437 26.3575 19.7336 24.0012 19.7336C21.6447 19.7336 19.7345 21.6437 19.7345 24.0003C19.7345 26.3566 21.6447 28.267 24.0012 28.267C26.3575 28.267 28.2679 26.3566 28.2679 24.0003Z" fill="white"/>
</g>
</svg>
